<?xml version="1.0" encoding="UTF-8"?>
<!DOCTYPE svg PUBLIC "-//W3C//DTD SVG 1.1//EN" "http://www.w3.org/Graphics/SVG/1.1/DTD/svg11.dtd">
<!-- Creator: CorelDRAW -->
<svg xmlns="http://www.w3.org/2000/svg" xml:space="preserve" width="7.2788mm" height="13.4633mm" version="1.1" style="shape-rendering:geometricPrecision; text-rendering:geometricPrecision; image-rendering:optimizeQuality; fill-rule:evenodd; clip-rule:evenodd"
viewBox="0 0 2.72 5.04"
 xmlns:xlink="http://www.w3.org/1999/xlink"
 xmlns:xodm="http://www.corel.com/coreldraw/odm/2003">
 <defs>
  <style type="text/css">
   <![CDATA[
    .fil1 {fill:#DC3B23}
    .fil0 {fill:white;fill-rule:nonzero}
   ]]>
  </style>
 </defs>
 <g id="Plan_x0020_1">
  <metadata id="CorelCorpID_0Corel-Layer"/>
  <g id="_1308655921216">
   <path class="fil0" d="M0.2 5.04c0.1,-0.29 0.27,-0.71 0.5,-1.29 0.23,-0.57 0.4,-1 0.53,-1.29l1.09 0c-0.1,0.29 -0.27,0.71 -0.5,1.29 -0.23,0.57 -0.4,1 -0.53,1.29l-1.09 0z"/>
   <path class="fil1" d="M1.02 -0l0.86 0c0.12,0 0.2,0.09 0.15,0.21 -0.13,0.3 -0.25,0.59 -0.38,0.88 -0.04,0.09 0,0.17 0.1,0.17l0.47 0 0.4 0c0.09,0 0.14,0.08 0.1,0.17l-0.28 0.7c-0.04,0.09 -0.15,0.17 -0.24,0.17 -0.26,0 -0.68,0.01 -0.93,0.01 -0.07,0 -0.16,0.06 -0.19,0.13l-0.08 0.18 -0.16 0.37c-0.03,0.07 -0.12,0.13 -0.19,0.13l-0.55 0c-0.07,0 -0.11,-0.06 -0.08,-0.13l0.23 -0.55c0.03,-0.07 0.12,-0.13 0.19,-0.13l0.3 0 0.21 0c0.09,0 0.2,-0.08 0.24,-0.17l0 -0.01c0.1,-0.23 0.2,-0.46 0.29,-0.69 0.04,-0.09 -0,-0.17 -0.1,-0.17l-0.06 0 -0.15 0 -0.71 0c-0.12,0 -0.17,-0.09 -0.12,-0.21l0.36 -0.86c0.05,-0.12 0.18,-0.21 0.3,-0.21z"/>
  </g>
 </g>
</svg>
