<?xml version="1.0" encoding="UTF-8"?>
<!DOCTYPE svg PUBLIC "-//W3C//DTD SVG 1.1//EN" "http://www.w3.org/Graphics/SVG/1.1/DTD/svg11.dtd">
<!-- Creator: CorelDRAW -->
<svg xmlns="http://www.w3.org/2000/svg" xml:space="preserve" width="92.5412mm" height="20.3182mm" version="1.1" style="shape-rendering:geometricPrecision; text-rendering:geometricPrecision; image-rendering:optimizeQuality; fill-rule:evenodd; clip-rule:evenodd"
viewBox="0 0 341.12 74.9"
 xmlns:xlink="http://www.w3.org/1999/xlink"
 xmlns:xodm="http://www.corel.com/coreldraw/odm/2003">
 <defs>
  <style type="text/css">
   <![CDATA[
    .fil2 {fill:#DC3B23}
    .fil1 {fill:#DC3B23;fill-rule:nonzero}
    .fil3 {fill:#DC3B23;fill-rule:nonzero}
    .fil0 {fill:#1C1B17;fill-rule:nonzero}
   ]]>
  </style>
 </defs>
 <g id="Plan_x0020_1">
  <metadata id="CorelCorpID_0Corel-Layer"/>
  <path class="fil0" d="M2.16 55.55c1.14,-3.14 2.96,-7.88 5.48,-14.2 2.51,-6.32 4.45,-11.06 5.82,-14.2l12.04 0c-1.14,3.14 -2.96,7.88 -5.48,14.2 -2.52,6.32 -4.45,11.06 -5.82,14.2l-12.04 0zm17.15 0c1.65,-4.43 4.23,-11.06 7.74,-19.88 3.51,-8.82 6.2,-15.45 8.08,-19.88l52.77 0c-0.89,2.61 -2.32,6.4 -4.29,11.36 -1.1,2.76 -2.67,5.04 -4.7,6.82 -2.03,1.78 -3.74,2.78 -5.12,3.01 3.5,1.78 4.48,4.6 2.94,8.46 -1.88,4.73 -3.24,8.1 -4.08,10.11l-12.95 0 2.94 -7.38c0.44,-1.1 0.45,-1.93 0.03,-2.5 -0.42,-0.57 -1.4,-0.85 -2.96,-0.85l-23.12 0 -4.27 10.74 -13.01 0zm20.21 -18.12l0.23 0c1.15,-1.17 2.27,-2.02 3.36,-2.53 1.09,-0.51 2.43,-0.77 4.03,-0.77l16.53 0c2.46,0 4.2,-1.29 5.23,-3.86l1.47 -3.69 -26.53 0 -4.31 10.85zm38.23 18.12c1.65,-4.43 4.23,-11.06 7.74,-19.88 3.51,-8.82 6.2,-15.45 8.08,-19.88l12.84 0c-1.65,4.43 -4.23,11.06 -7.74,19.88 -3.51,8.82 -6.2,15.45 -8.08,19.88l-12.84 0zm18.4 0c1.65,-4.43 4.23,-11.06 7.74,-19.88 3.51,-8.82 6.2,-15.45 8.08,-19.88l32.83 0c8.07,0 13.11,1.47 15.12,4.4 2.01,2.93 1.55,8.09 -1.38,15.48 -2.94,7.38 -6.58,12.54 -10.93,15.48 -4.35,2.93 -10.55,4.4 -18.62,4.4l-32.83 0zm15.54 -6.36l0.23 0c1.32,-1.7 2.59,-2.87 3.8,-3.49 1.21,-0.62 2.69,-0.94 4.43,-0.94l17.66 0c1.4,0 2.49,-0.29 3.28,-0.88 0.78,-0.59 1.42,-1.51 1.92,-2.76l4.36 -10.96c0.5,-1.25 0.58,-2.16 0.26,-2.73 -0.32,-0.57 -1.19,-0.85 -2.59,-0.85l-24.37 0 -8.99 22.61zm43.88 6.36c1.65,-4.43 4.23,-11.06 7.74,-19.88 3.51,-8.82 6.2,-15.45 8.08,-19.88l45.61 0 -3.95 9.94c-5.31,0.11 -12.7,0.17 -22.16,0.17l-10.51 0 -3.37 8.46 0.23 0c1.34,-1.55 2.54,-2.6 3.61,-3.15 1.07,-0.55 2.4,-0.82 3.99,-0.82l4.26 0c8.75,0 15.54,0.06 20.38,0.17l-3.73 9.37c-4.93,0.11 -11.77,0.17 -20.52,0.17l-10.51 0 -1.9 4.77 10.79 0c9.43,0 16.75,0.06 21.97,0.17l-4.18 10.51 -45.84 0zm67.02 0c1.14,-3.14 2.96,-7.88 5.48,-14.2 2.51,-6.32 4.45,-11.06 5.82,-14.2l11.19 0 -1.06 4.66 0.23 0c1.03,-1.55 2.2,-2.7 3.5,-3.44 1.3,-0.74 2.87,-1.15 4.72,-1.22 2.33,-0.15 5.49,-0.15 9.49,0 3.63,0.11 5.69,1.74 6.18,4.88 2.36,-3.07 5.69,-4.7 10.01,-4.88 4.41,-0.15 10.91,-0.15 19.48,0 -3.18,8.67 -6.99,18.14 -11.41,28.4l-12.1 0 7.91 -19.88 -11.08 0c-0.61,0 -1.24,0.19 -1.9,0.57 -0.66,0.38 -1.17,1 -1.51,1.87l-6.93 17.44 -12.27 0 6.93 -17.44c0.65,-1.63 0.1,-2.44 -1.64,-2.44l-8.46 0c-0.61,0 -1.24,0.19 -1.9,0.57 -0.66,0.38 -1.17,1 -1.51,1.87l-6.93 17.44 -12.21 0zm75.94 0c-4.52,-0.15 -6.4,-1.99 -5.65,-5.51 0.12,-0.68 0.47,-1.74 1.04,-3.18 0.57,-1.44 1.09,-2.56 1.56,-3.35 1.86,-3.26 5.22,-4.88 10.06,-4.88l15.96 0c1.74,0 2.95,0.24 3.64,0.71 0.68,0.47 1.01,1.28 0.97,2.41l0.23 0 1.45 -3.64c0.65,-1.63 0.08,-2.44 -1.7,-2.44l-12.95 0c-5.19,0 -9.03,-0.09 -11.53,-0.28l3.28 -8.24 27.72 0c3.33,0 5.71,0.73 7.14,2.19 1.43,1.46 1.74,3.53 0.93,6.22 -1.21,3.9 -3.84,10.56 -7.89,19.99l-34.25 0zm8.7 -7.72l16.7 0 0.75 -1.87c0.27,-0.68 0.28,-1.16 0.04,-1.45 -0.25,-0.28 -0.81,-0.43 -1.68,-0.43l-14.2 0c-0.45,0 -0.9,0.12 -1.34,0.37 -0.44,0.25 -0.73,0.56 -0.88,0.94l-0.47 1.19c-0.33,0.83 0.03,1.25 1.09,1.25z"/>
  <path class="fil1" d="M205.84 55.55c0.47,-1.74 1.03,-3.45 1.69,-5.11 0.65,-1.63 1.42,-3.29 2.33,-5l11.99 0c-0.56,1.89 -1.13,3.56 -1.7,5 -0.57,1.44 -1.34,3.14 -2.32,5.11l-11.98 0z"/>
  <path class="fil2" d="M11.2 0l9.44 0c1.27,0 2.17,1.04 1.63,2.31 -1.39,3.26 -2.77,6.49 -4.16,9.74 -0.44,1.04 0.05,1.89 1.09,1.89l5.23 0 4.36 0c1.04,0 1.5,0.85 1.09,1.89l-3.11 7.75c-0.42,1.04 -1.66,1.89 -2.7,1.89 -2.83,0 -7.52,0.12 -10.24,0.12 -0.81,0 -1.76,0.67 -2.11,1.48l-0.83 1.96 -1.75 4.1c-0.35,0.81 -1.29,1.48 -2.11,1.48l-6.06 0c-0.81,0 -1.2,-0.67 -0.85,-1.48l2.58 -6.06c0.35,-0.81 1.29,-1.48 2.11,-1.48l3.31 0 2.34 0c1.04,0 2.25,-0.85 2.7,-1.89l0.05 -0.12c1.08,-2.54 2.16,-5.08 3.25,-7.63 0.44,-1.04 -0.05,-1.89 -1.09,-1.89l-0.71 0 -1.66 0 -7.78 0c-1.27,0 -1.86,-1.04 -1.32,-2.31l4.02 -9.44c0.54,-1.27 2.02,-2.31 3.29,-2.31z"/>
  <path class="fil3" d="M38.5 74.85c-0.02,-0.95 -0.04,-2.37 -0.04,-4.27 0,-1.32 0,-2.3 0.01,-2.95 -1.72,0 -3.04,-0.01 -3.94,-0.04l0 -1.28 9.35 0 0 1.28c-0.95,0.02 -2.33,0.04 -4.15,0.04l-0.1 0 0 0.02c0.21,0.23 0.32,0.55 0.32,0.98l0 1.95c0,1.9 -0.01,3.32 -0.04,4.27l-1.42 0zm6.78 0c-0.02,-0.95 -0.04,-2.37 -0.04,-4.27 0,-1.9 0.01,-3.32 0.04,-4.27l1.43 0 0 4 0.02 0c0.24,-0.39 0.67,-0.59 1.27,-0.59l5.47 0 0 -3.42 1.43 0c0.02,0.95 0.04,2.37 0.04,4.27 0,1.9 -0.01,3.32 -0.04,4.27l-1.43 0 0 -3.71 -6.76 0 0 3.71 -1.43 0zm11.64 0c-0.02,-0.95 -0.04,-2.37 -0.04,-4.27 0,-1.9 0.01,-3.32 0.04,-4.27l8.23 0 0 1.33c-0.95,0.02 -2.55,0.04 -4.81,0.04l-2 0 0 2.77 0.02 0c0.24,-0.39 0.67,-0.59 1.27,-0.59l0.71 0c2.12,0 3.63,0.01 4.51,0.04l0 1.27c-0.89,0.02 -2.39,0.04 -4.51,0.04l-2 0 0 2.28 2.05 0c2.25,0 3.85,0.01 4.81,0.04l0 1.33 -8.28 0zm13.74 0c-0.02,-0.95 -0.04,-2.37 -0.04,-4.27 0,-1.9 0.01,-3.32 0.04,-4.27l1.43 0 0 4 0.02 0c0.24,-0.39 0.67,-0.59 1.27,-0.59l5.47 0 0 -3.42 1.43 0c0.02,0.95 0.04,2.37 0.04,4.27 0,1.9 -0.01,3.32 -0.04,4.27l-1.43 0 0 -3.71 -6.76 0 0 3.71 -1.43 0zm11.64 0c-0.02,-0.95 -0.04,-2.37 -0.04,-4.27 0,-1.9 0.01,-3.32 0.04,-4.27l8.24 0 0 1.33c-0.95,0.02 -2.55,0.04 -4.81,0.04l-2 0 0 2.77 0.02 0c0.24,-0.39 0.67,-0.59 1.27,-0.59l0.71 0c2.12,0 3.63,0.01 4.51,0.04l0 1.27c-0.89,0.02 -2.39,0.04 -4.51,0.04l-2 0 0 2.28 2.05 0c2.25,0 3.86,0.01 4.81,0.04l0 1.33 -8.28 0zm9.16 0l5.23 -8.54 1.71 0 5.23 8.54 -1.64 0 -1.07 -1.79 -6.75 0 -1.07 1.79 -1.65 0zm8.66 -3.14l-2.45 -4.08 -0.23 0 -2.71 4.51 0.02 0.02c0.31,-0.31 0.72,-0.46 1.24,-0.46l4.12 0zm4.62 3.14c-0.02,-0.95 -0.04,-2.37 -0.04,-4.27 0,-1.9 0.01,-3.32 0.04,-4.27l9.53 0c0.03,0.55 0.05,1.43 0.05,2.62 0,0.8 -0.36,1.44 -1.07,1.93 0.76,0.43 1.15,1.05 1.15,1.87 0,0.98 -0,1.69 -0.01,2.12l-1.45 0 0 -1.94c0,-0.36 -0.11,-0.64 -0.33,-0.84 -0.22,-0.2 -0.53,-0.31 -0.93,-0.31l-5.5 0 0 3.09 -1.43 0zm1.43 -3.77l0.02 0c0.24,-0.39 0.67,-0.59 1.27,-0.59l3.75 0c1.1,0 1.65,-0.48 1.65,-1.45l0 -1.42 -6.69 0 0 3.45zm13.46 3.77c-0.02,-0.95 -0.04,-2.37 -0.04,-4.27 0,-1.32 0,-2.3 0.01,-2.95 -1.72,0 -3.04,-0.01 -3.94,-0.04l0 -1.28 9.35 0 0 1.28c-0.95,0.02 -2.33,0.04 -4.15,0.04l-0.1 0 0 0.02c0.21,0.23 0.32,0.55 0.32,0.98l0 1.95c0,1.9 -0.01,3.32 -0.04,4.27l-1.41 0zm13.08 0.04c-0.99,-0.04 -1.75,-0.31 -2.28,-0.82 -0.53,-0.5 -0.81,-1.16 -0.84,-1.98 -0.05,-1.11 -0.05,-3.04 0,-5.78 1.27,-0.03 2.71,-0.05 4.33,-0.06 1.62,-0.01 2.57,-0 2.84,0.01 0.99,0.04 1.75,0.31 2.28,0.82 0.53,0.5 0.81,1.16 0.84,1.98 0.04,1.02 0.04,2.03 0,3.04 -0.03,0.81 -0.31,1.47 -0.84,1.98 -0.53,0.5 -1.29,0.78 -2.28,0.82 -0.34,0.01 -1.02,0.01 -2.03,0.01 -1.01,0 -1.68,-0 -2.03,-0.01zm0.13 -1.34l3.78 0c0.57,0 1.01,-0.15 1.32,-0.45 0.31,-0.3 0.46,-0.72 0.46,-1.26l0 -2.53c0,-0.54 -0.15,-0.96 -0.46,-1.26 -0.31,-0.3 -0.75,-0.45 -1.32,-0.45l-5.56 0 0 4.23c0,0.54 0.15,0.96 0.46,1.26 0.31,0.3 0.75,0.45 1.32,0.45zm9 1.31c-0.02,-0.95 -0.04,-2.37 -0.04,-4.27 0,-1.9 0.01,-3.32 0.04,-4.27l8.14 0 0 1.33c-0.95,0.02 -2.55,0.04 -4.81,0.04l-1.9 0 0 2.72 0.02 0c0.24,-0.39 0.67,-0.59 1.27,-0.59l0.32 0c2.19,0 3.76,0.01 4.71,0.04l0 1.29c-0.95,0.02 -2.52,0.04 -4.71,0.04l-1.61 0 0 3.67 -1.43 0zm13.1 0c-0.02,-0.95 -0.04,-2.37 -0.04,-4.27 0,-1.9 0.01,-3.32 0.04,-4.27l1.96 0 4.76 6.91 0.02 -0.02c0,-0.37 0.08,-0.65 0.23,-0.85l4.1 -6.03 1.96 0c0.02,0.95 0.04,2.37 0.04,4.27 0,1.9 -0.01,3.32 -0.04,4.27l-1.43 0 0 -6.38c0,-0.25 0.04,-0.47 0.12,-0.65l-0.02 -0.02 -4.81 7.05 -0.76 0 -4.81 -7.05 -0.02 0.02c0.07,0.16 0.11,0.38 0.11,0.65l0 6.38 -1.43 0zm18.19 0.04c-0.99,-0.04 -1.75,-0.31 -2.28,-0.82 -0.53,-0.5 -0.81,-1.16 -0.84,-1.98 -0.05,-1.11 -0.05,-3.04 0,-5.78 1.27,-0.03 2.71,-0.05 4.33,-0.06 1.62,-0.01 2.57,-0 2.84,0.01 0.99,0.04 1.75,0.31 2.28,0.82 0.53,0.5 0.81,1.16 0.84,1.98 0.04,1.02 0.04,2.03 0,3.04 -0.03,0.81 -0.31,1.47 -0.84,1.98 -0.53,0.5 -1.29,0.78 -2.28,0.82 -0.34,0.01 -1.02,0.01 -2.03,0.01 -1.01,0 -1.68,-0 -2.03,-0.01zm0.13 -1.34l3.78 0c0.57,0 1.01,-0.15 1.32,-0.45 0.31,-0.3 0.46,-0.72 0.46,-1.26l0 -2.53c0,-0.54 -0.15,-0.96 -0.46,-1.26 -0.31,-0.3 -0.75,-0.45 -1.32,-0.45l-5.56 0 0 4.23c0,0.54 0.15,0.96 0.46,1.26 0.31,0.3 0.75,0.45 1.32,0.45zm9 1.31c-0.02,-0.95 -0.04,-2.37 -0.04,-4.27 0,-1.9 0.01,-3.32 0.04,-4.27l9.53 0c0.03,0.55 0.05,1.43 0.05,2.62 0,0.8 -0.36,1.44 -1.07,1.93 0.76,0.43 1.15,1.05 1.15,1.87 0,0.98 -0,1.69 -0.01,2.12l-1.45 0 0 -1.94c0,-0.36 -0.11,-0.64 -0.33,-0.84 -0.22,-0.2 -0.53,-0.31 -0.93,-0.31l-5.5 0 0 3.09 -1.43 0zm1.43 -3.77l0.02 0c0.24,-0.39 0.67,-0.59 1.27,-0.59l3.75 0c1.1,0 1.65,-0.48 1.65,-1.45l0 -1.42 -6.69 0 0 3.45zm13.24 3.81c-0.99,-0.04 -1.75,-0.31 -2.28,-0.82 -0.53,-0.5 -0.81,-1.16 -0.84,-1.98 -0.05,-1.11 -0.05,-3.04 0,-5.78 1.27,-0.03 2.71,-0.05 4.33,-0.06 1.62,-0.01 2.57,-0 2.84,0.01 0.99,0.04 1.75,0.31 2.28,0.82 0.53,0.5 0.81,1.16 0.84,1.98 0.04,1.02 0.04,2.03 0,3.04 -0.03,0.81 -0.31,1.47 -0.84,1.98 -0.53,0.5 -1.29,0.78 -2.28,0.82 -0.34,0.01 -1.02,0.01 -2.03,0.01 -1.01,0 -1.68,-0 -2.03,-0.01zm0.13 -1.34l3.78 0c0.57,0 1.01,-0.15 1.32,-0.45 0.31,-0.3 0.46,-0.72 0.46,-1.26l0 -2.53c0,-0.54 -0.15,-0.96 -0.46,-1.26 -0.31,-0.3 -0.75,-0.45 -1.32,-0.45l-5.56 0 0 4.23c0,0.54 0.15,0.96 0.46,1.26 0.31,0.3 0.75,0.45 1.32,0.45zm12.13 1.34c-0.99,-0.04 -1.75,-0.31 -2.28,-0.82 -0.53,-0.5 -0.81,-1.16 -0.84,-1.98 -0.06,-1.31 -0.04,-3.24 0.05,-5.78 1.19,-0.03 2.58,-0.05 4.18,-0.06 1.6,-0.01 2.5,-0 2.7,0.01 0.98,0.03 1.68,0.29 2.11,0.78 0.43,0.49 0.65,1.16 0.67,2.01 0,0.17 -0,0.3 -0.01,0.38l-1.44 0 0 -0.12c0,-1.14 -0.53,-1.71 -1.59,-1.71l-5.2 0 0 4.23c0,0.54 0.15,0.96 0.46,1.26 0.31,0.3 0.75,0.45 1.32,0.45l3.22 0c0.57,0 1.01,-0.15 1.32,-0.45 0.31,-0.3 0.46,-0.72 0.46,-1.26l0 -0.33 1.49 0 0 0.59c0,0.81 -0.27,1.46 -0.82,1.98 -0.55,0.51 -1.32,0.78 -2.32,0.82 -0.34,0.01 -0.92,0.01 -1.74,0.01 -0.82,0 -1.4,-0 -1.74,-0.01zm11.64 0c-0.99,-0.04 -1.75,-0.31 -2.28,-0.82 -0.53,-0.5 -0.81,-1.16 -0.84,-1.98 -0.06,-1.31 -0.04,-3.24 0.05,-5.78 1.19,-0.03 2.58,-0.05 4.18,-0.06 1.6,-0.01 2.5,-0 2.7,0.01 0.98,0.03 1.68,0.29 2.11,0.78 0.43,0.49 0.65,1.16 0.67,2.01 0,0.17 -0,0.3 -0.01,0.38l-1.44 0 0 -0.12c0,-1.14 -0.53,-1.71 -1.59,-1.71l-5.2 0 0 4.23c0,0.54 0.15,0.96 0.46,1.26 0.31,0.3 0.75,0.45 1.32,0.45l3.22 0c0.57,0 1.01,-0.15 1.32,-0.45 0.31,-0.3 0.46,-0.72 0.46,-1.26l0 -0.33 1.49 0 0 0.59c0,0.81 -0.27,1.46 -0.82,1.98 -0.55,0.51 -1.32,0.78 -2.32,0.82 -0.34,0.01 -0.92,0.01 -1.74,0.01 -0.82,0 -1.4,-0 -1.74,-0.01zm7.36 -0.04l5.23 -8.54 1.71 0 5.23 8.54 -1.64 0 -1.07 -1.79 -6.75 0 -1.07 1.79 -1.65 0zm8.66 -3.14l-2.45 -4.08 -0.23 0 -2.71 4.51 0.02 0.02c0.31,-0.31 0.72,-0.46 1.24,-0.46l4.12 0zm4.62 3.14c-0.02,-0.95 -0.04,-2.37 -0.04,-4.27 0,-1.9 0.01,-3.32 0.04,-4.27l1.31 0 7.12 6.81 0.02 -0.02c-0.2,-0.28 -0.29,-0.54 -0.29,-0.79l0 -5.99 1.43 0c0.02,0.95 0.04,2.37 0.04,4.27 0,1.9 -0.01,3.32 -0.04,4.27l-1.31 0 -7.11 -6.81 -0.02 0.02c0.19,0.3 0.28,0.53 0.28,0.68l0 6.1 -1.43 0zm15.27 0c-0.02,-0.95 -0.04,-2.37 -0.04,-4.27 0,-1.9 0.01,-3.32 0.04,-4.27l9.53 0c0.03,0.55 0.05,1.43 0.05,2.62 0,0.8 -0.36,1.44 -1.07,1.93 0.76,0.43 1.15,1.05 1.15,1.87 0,0.98 -0,1.69 -0.01,2.12l-1.45 0 0 -1.94c0,-0.36 -0.11,-0.64 -0.33,-0.84 -0.22,-0.2 -0.53,-0.31 -0.93,-0.31l-5.5 0 0 3.09 -1.43 0zm1.43 -3.77l0.02 0c0.24,-0.39 0.67,-0.59 1.27,-0.59l3.75 0c1.1,0 1.65,-0.48 1.65,-1.45l0 -1.42 -6.69 0 0 3.45zm10.14 3.77c-0.02,-0.95 -0.04,-2.37 -0.04,-4.27 0,-1.9 0.01,-3.32 0.04,-4.27l1.42 0c0.02,0.95 0.04,2.37 0.04,4.27 0,1.9 -0.01,3.32 -0.04,4.27l-1.42 0zm3.46 0c-0.02,-0.95 -0.04,-2.37 -0.04,-4.27 0,-1.9 0.01,-3.32 0.04,-4.27l6.17 0c0.62,0 1.15,0.07 1.6,0.21 0.45,0.14 0.8,0.33 1.07,0.56 0.26,0.23 0.47,0.54 0.63,0.92 0.15,0.38 0.26,0.77 0.31,1.17 0.05,0.39 0.07,0.86 0.07,1.41 0,0.54 -0.02,1.01 -0.07,1.41 -0.05,0.39 -0.15,0.78 -0.31,1.16 -0.15,0.38 -0.36,0.69 -0.63,0.92 -0.26,0.23 -0.62,0.42 -1.07,0.56 -0.45,0.14 -0.98,0.21 -1.6,0.21l-6.17 0zm1.43 -0.73l0.02 0c0.24,-0.39 0.66,-0.59 1.26,-0.59l3.7 0c0.34,0 0.63,-0.04 0.87,-0.13 0.24,-0.09 0.43,-0.19 0.56,-0.32 0.13,-0.13 0.23,-0.3 0.3,-0.51 0.07,-0.21 0.12,-0.41 0.14,-0.59 0.02,-0.18 0.03,-0.4 0.03,-0.66l0 -1.49c0,-0.26 -0.01,-0.48 -0.03,-0.66 -0.02,-0.18 -0.07,-0.37 -0.14,-0.59 -0.07,-0.21 -0.17,-0.38 -0.3,-0.51 -0.13,-0.13 -0.32,-0.24 -0.56,-0.32 -0.24,-0.09 -0.53,-0.13 -0.87,-0.13l-4.98 0 0 6.49zm10.36 0.73c-0.02,-0.95 -0.04,-2.37 -0.04,-4.27 0,-1.9 0.01,-3.32 0.04,-4.27l1.42 0c0.02,0.95 0.04,2.37 0.04,4.27 0,1.9 -0.01,3.32 -0.04,4.27l-1.42 0zm3.46 0c-0.02,-0.95 -0.04,-2.37 -0.04,-4.27 0,-1.9 0.01,-3.32 0.04,-4.27l1.31 0 7.12 6.81 0.02 -0.02c-0.2,-0.28 -0.29,-0.54 -0.29,-0.79l0 -5.99 1.43 0c0.02,0.95 0.04,2.37 0.04,4.27 0,1.9 -0.01,3.32 -0.04,4.27l-1.31 0 -7.11 -6.81 -0.02 0.02c0.19,0.3 0.28,0.53 0.28,0.68l0 6.1 -1.43 0zm14.73 0.04c-0.99,-0.04 -1.75,-0.31 -2.28,-0.82 -0.53,-0.5 -0.81,-1.16 -0.84,-1.98 -0.04,-1.04 -0.02,-2.97 0.06,-5.78 1.19,-0.03 2.61,-0.05 4.27,-0.06 1.66,-0.01 2.6,-0 2.82,0.01 0.95,0.03 1.66,0.27 2.13,0.73 0.47,0.45 0.72,1.05 0.75,1.79l0.01 0.29 -1.49 0 0 -0.04c0,-0.95 -0.51,-1.43 -1.54,-1.43l-5.53 0 -0.01 4.23c0,0.54 0.15,0.96 0.46,1.26 0.31,0.3 0.75,0.45 1.32,0.45l3.59 0c0.57,0 1.01,-0.15 1.32,-0.45 0.31,-0.3 0.46,-0.72 0.46,-1.26l0 -0.94 -0.02 0c-0.19,0.31 -0.59,0.46 -1.2,0.46l-0.39 0c-1.1,0 -2.12,-0.01 -3.07,-0.04l0 -1.29c0.95,-0.02 1.98,-0.04 3.07,-0.04l3.09 0 0 2.1c0,0.81 -0.27,1.47 -0.81,1.98 -0.54,0.51 -1.31,0.78 -2.31,0.81 -0.33,0.01 -0.96,0.01 -1.92,0.01 -0.95,0 -1.6,-0 -1.94,-0.01z"/>
 </g>
</svg>
